<svg width="32" height="32" viewBox="0 0 32 32" fill="none" xmlns="http://www.w3.org/2000/svg">
  <defs>
    <linearGradient id="brandGradient" x1="0%" y1="0%" x2="100%" y2="100%">
      <stop offset="0%" style="stop-color:#2563eb;stop-opacity:1" />
      <stop offset="100%" style="stop-color:#4f46e5;stop-opacity:1" />
    </linearGradient>
  </defs>
  <rect width="32" height="32" rx="6" fill="url(#brandGradient)"/>
  <path d="M8 12h16c0.552 0 1 0.448 1 1v10c0 0.552-0.448 1-1 1H8c-0.552 0-1-0.448-1-1V13c0-0.552 0.448-1 1-1z" fill="white" fill-opacity="0.9"/>
  <path d="M11 9h10c0.552 0 1 0.448 1 1v1H10V10c0-0.552 0.448-1 1-1z" fill="white" fill-opacity="0.7"/>
  <path d="M13 15h6v1h-6v-1z" fill="url(#brandGradient)" fill-opacity="0.8"/>
  <path d="M13 17h4v1h-4v-1z" fill="url(#brandGradient)" fill-opacity="0.6"/>
  <path d="M13 19h5v1h-5v-1z" fill="url(#brandGradient)" fill-opacity="0.6"/>
</svg>